<mxfile host="Electron" agent="Mozilla/5.0 (Windows NT 10.0; Win64; x64) AppleWebKit/537.36 (KHTML, like Gecko) draw.io/27.0.9 Chrome/134.0.6998.205 Electron/35.4.0 Safari/537.36" version="27.0.9">
  <diagram id="C5RBs43oDa-KdzZeNtuy" name="Page-1">
    <mxGraphModel dx="1703" dy="1089" grid="1" gridSize="10" guides="1" tooltips="1" connect="1" arrows="1" fold="1" page="1" pageScale="1" pageWidth="827" pageHeight="1169" math="0" shadow="0">
      <root>
        <mxCell id="WIyWlLk6GJQsqaUBKTNV-0" />
        <mxCell id="WIyWlLk6GJQsqaUBKTNV-1" parent="WIyWlLk6GJQsqaUBKTNV-0" />
        <mxCell id="9JURjrUvkeu7Aro2wpaL-4" value=":LevelManager" style="shape=umlLifeline;perimeter=lifelinePerimeter;whiteSpace=wrap;html=1;container=1;dropTarget=0;collapsible=0;recursiveResize=0;outlineConnect=0;portConstraint=eastwest;newEdgeStyle={&quot;curved&quot;:0,&quot;rounded&quot;:0};" parent="WIyWlLk6GJQsqaUBKTNV-1" vertex="1">
          <mxGeometry x="70" y="240" width="100" height="1510" as="geometry" />
        </mxCell>
        <mxCell id="9JURjrUvkeu7Aro2wpaL-7" value="" style="html=1;points=[[0,0,0,0,5],[0,1,0,0,-5],[1,0,0,0,5],[1,1,0,0,-5]];perimeter=orthogonalPerimeter;outlineConnect=0;targetShapes=umlLifeline;portConstraint=eastwest;newEdgeStyle={&quot;curved&quot;:0,&quot;rounded&quot;:0};" parent="9JURjrUvkeu7Aro2wpaL-4" vertex="1">
          <mxGeometry x="40" y="60" width="20" height="1310" as="geometry" />
        </mxCell>
        <mxCell id="9JURjrUvkeu7Aro2wpaL-12" value="" style="html=1;points=[[0,0,0,0,5],[0,1,0,0,-5],[1,0,0,0,5],[1,1,0,0,-5]];perimeter=orthogonalPerimeter;outlineConnect=0;targetShapes=umlLifeline;portConstraint=eastwest;newEdgeStyle={&quot;curved&quot;:0,&quot;rounded&quot;:0};" parent="9JURjrUvkeu7Aro2wpaL-4" vertex="1">
          <mxGeometry x="55" y="100" width="10" height="40" as="geometry" />
        </mxCell>
        <mxCell id="9JURjrUvkeu7Aro2wpaL-13" value="StartPhase()" style="html=1;align=left;spacingLeft=2;endArrow=block;rounded=0;edgeStyle=orthogonalEdgeStyle;curved=0;rounded=0;" parent="9JURjrUvkeu7Aro2wpaL-4" target="9JURjrUvkeu7Aro2wpaL-12" edge="1">
          <mxGeometry relative="1" as="geometry">
            <mxPoint x="60" y="80" as="sourcePoint" />
            <Array as="points">
              <mxPoint x="90" y="110" />
            </Array>
          </mxGeometry>
        </mxCell>
        <mxCell id="9JURjrUvkeu7Aro2wpaL-15" value="&lt;span style=&quot;background-color: rgb(18, 18, 18);&quot;&gt;&amp;nbsp; &amp;nbsp; [Phase.Intro]&lt;/span&gt;" style="html=1;points=[[0,0,0,0,5],[0,1,0,0,-5],[1,0,0,0,5],[1,1,0,0,-5]];perimeter=orthogonalPerimeter;outlineConnect=0;targetShapes=umlLifeline;portConstraint=eastwest;newEdgeStyle={&quot;curved&quot;:0,&quot;rounded&quot;:0};align=left;" parent="9JURjrUvkeu7Aro2wpaL-4" vertex="1">
          <mxGeometry x="55" y="160" width="10" height="70" as="geometry" />
        </mxCell>
        <mxCell id="9JURjrUvkeu7Aro2wpaL-16" value="OnPhase()" style="html=1;align=left;spacingLeft=2;endArrow=block;rounded=0;edgeStyle=orthogonalEdgeStyle;curved=0;rounded=0;" parent="9JURjrUvkeu7Aro2wpaL-4" target="9JURjrUvkeu7Aro2wpaL-15" edge="1">
          <mxGeometry relative="1" as="geometry">
            <mxPoint x="65" y="130" as="sourcePoint" />
            <Array as="points">
              <mxPoint x="95" y="160" />
            </Array>
          </mxGeometry>
        </mxCell>
        <mxCell id="9JURjrUvkeu7Aro2wpaL-23" value="" style="html=1;points=[[0,0,0,0,5],[0,1,0,0,-5],[1,0,0,0,5],[1,1,0,0,-5]];perimeter=orthogonalPerimeter;outlineConnect=0;targetShapes=umlLifeline;portConstraint=eastwest;newEdgeStyle={&quot;curved&quot;:0,&quot;rounded&quot;:0};" parent="9JURjrUvkeu7Aro2wpaL-4" vertex="1">
          <mxGeometry x="55" y="260" width="10" height="40" as="geometry" />
        </mxCell>
        <mxCell id="9JURjrUvkeu7Aro2wpaL-26" value="&amp;nbsp; &amp;nbsp; [Phase.Initialization]" style="html=1;points=[[0,0,0,0,5],[0,1,0,0,-5],[1,0,0,0,5],[1,1,0,0,-5]];perimeter=orthogonalPerimeter;outlineConnect=0;targetShapes=umlLifeline;portConstraint=eastwest;newEdgeStyle={&quot;curved&quot;:0,&quot;rounded&quot;:0};align=left;" parent="9JURjrUvkeu7Aro2wpaL-4" vertex="1">
          <mxGeometry x="56" y="320" width="10" height="50" as="geometry" />
        </mxCell>
        <mxCell id="9JURjrUvkeu7Aro2wpaL-27" style="edgeStyle=orthogonalEdgeStyle;rounded=0;orthogonalLoop=1;jettySize=auto;html=1;curved=0;exitX=1;exitY=1;exitDx=0;exitDy=-5;exitPerimeter=0;entryX=1;entryY=0;entryDx=0;entryDy=5;entryPerimeter=0;" parent="9JURjrUvkeu7Aro2wpaL-4" source="9JURjrUvkeu7Aro2wpaL-23" target="9JURjrUvkeu7Aro2wpaL-26" edge="1">
          <mxGeometry relative="1" as="geometry">
            <Array as="points">
              <mxPoint x="100" y="295" />
              <mxPoint x="100" y="325" />
            </Array>
          </mxGeometry>
        </mxCell>
        <mxCell id="9JURjrUvkeu7Aro2wpaL-29" value="OnPhase()" style="edgeLabel;html=1;align=left;verticalAlign=middle;resizable=0;points=[];" parent="9JURjrUvkeu7Aro2wpaL-27" vertex="1" connectable="0">
          <mxGeometry x="0.053" y="1" relative="1" as="geometry">
            <mxPoint as="offset" />
          </mxGeometry>
        </mxCell>
        <mxCell id="9JURjrUvkeu7Aro2wpaL-30" value="" style="html=1;points=[[0,0,0,0,5],[0,1,0,0,-5],[1,0,0,0,5],[1,1,0,0,-5]];perimeter=orthogonalPerimeter;outlineConnect=0;targetShapes=umlLifeline;portConstraint=eastwest;newEdgeStyle={&quot;curved&quot;:0,&quot;rounded&quot;:0};" parent="9JURjrUvkeu7Aro2wpaL-4" vertex="1">
          <mxGeometry x="56" y="390" width="10" height="180" as="geometry" />
        </mxCell>
        <mxCell id="9JURjrUvkeu7Aro2wpaL-31" style="edgeStyle=orthogonalEdgeStyle;rounded=0;orthogonalLoop=1;jettySize=auto;html=1;curved=0;exitX=1;exitY=1;exitDx=0;exitDy=-5;exitPerimeter=0;entryX=1;entryY=0;entryDx=0;entryDy=5;entryPerimeter=0;" parent="9JURjrUvkeu7Aro2wpaL-4" source="9JURjrUvkeu7Aro2wpaL-26" target="9JURjrUvkeu7Aro2wpaL-30" edge="1">
          <mxGeometry relative="1" as="geometry">
            <Array as="points">
              <mxPoint x="100" y="365" />
              <mxPoint x="100" y="395" />
            </Array>
          </mxGeometry>
        </mxCell>
        <mxCell id="9JURjrUvkeu7Aro2wpaL-32" value="PhaseInitialization()" style="edgeLabel;html=1;align=left;verticalAlign=middle;resizable=0;points=[];" parent="9JURjrUvkeu7Aro2wpaL-31" vertex="1" connectable="0">
          <mxGeometry x="-0.0224" relative="1" as="geometry">
            <mxPoint as="offset" />
          </mxGeometry>
        </mxCell>
        <mxCell id="9JURjrUvkeu7Aro2wpaL-53" value="" style="html=1;points=[[0,0,0,0,5],[0,1,0,0,-5],[1,0,0,0,5],[1,1,0,0,-5]];perimeter=orthogonalPerimeter;outlineConnect=0;targetShapes=umlLifeline;portConstraint=eastwest;newEdgeStyle={&quot;curved&quot;:0,&quot;rounded&quot;:0};" parent="9JURjrUvkeu7Aro2wpaL-4" vertex="1">
          <mxGeometry x="56" y="580" width="10" height="70" as="geometry" />
        </mxCell>
        <mxCell id="9JURjrUvkeu7Aro2wpaL-54" style="edgeStyle=orthogonalEdgeStyle;rounded=0;orthogonalLoop=1;jettySize=auto;html=1;curved=0;exitX=1;exitY=1;exitDx=0;exitDy=-5;exitPerimeter=0;entryX=1;entryY=0;entryDx=0;entryDy=5;entryPerimeter=0;" parent="9JURjrUvkeu7Aro2wpaL-4" source="9JURjrUvkeu7Aro2wpaL-30" target="9JURjrUvkeu7Aro2wpaL-53" edge="1">
          <mxGeometry relative="1" as="geometry">
            <Array as="points">
              <mxPoint x="100" y="565" />
              <mxPoint x="100" y="585" />
            </Array>
          </mxGeometry>
        </mxCell>
        <mxCell id="9JURjrUvkeu7Aro2wpaL-55" value="CreatePlayer()" style="edgeLabel;html=1;align=left;verticalAlign=middle;resizable=0;points=[];" parent="9JURjrUvkeu7Aro2wpaL-54" vertex="1" connectable="0">
          <mxGeometry x="0.0217" y="-1" relative="1" as="geometry">
            <mxPoint as="offset" />
          </mxGeometry>
        </mxCell>
        <mxCell id="9JURjrUvkeu7Aro2wpaL-5" value=":MapGenerator" style="shape=umlLifeline;perimeter=lifelinePerimeter;whiteSpace=wrap;html=1;container=1;dropTarget=0;collapsible=0;recursiveResize=0;outlineConnect=0;portConstraint=eastwest;newEdgeStyle={&quot;curved&quot;:0,&quot;rounded&quot;:0};" parent="WIyWlLk6GJQsqaUBKTNV-1" vertex="1">
          <mxGeometry x="414" y="660" width="100" height="230" as="geometry" />
        </mxCell>
        <mxCell id="9JURjrUvkeu7Aro2wpaL-42" value="" style="html=1;points=[[0,0,0,0,5],[0,1,0,0,-5],[1,0,0,0,5],[1,1,0,0,-5]];perimeter=orthogonalPerimeter;outlineConnect=0;targetShapes=umlLifeline;portConstraint=eastwest;newEdgeStyle={&quot;curved&quot;:0,&quot;rounded&quot;:0};" parent="9JURjrUvkeu7Aro2wpaL-5" vertex="1">
          <mxGeometry x="45" y="80" width="10" height="30" as="geometry" />
        </mxCell>
        <mxCell id="9JURjrUvkeu7Aro2wpaL-47" value="" style="html=1;points=[[0,0,0,0,5],[0,1,0,0,-5],[1,0,0,0,5],[1,1,0,0,-5]];perimeter=orthogonalPerimeter;outlineConnect=0;targetShapes=umlLifeline;portConstraint=eastwest;newEdgeStyle={&quot;curved&quot;:0,&quot;rounded&quot;:0};" parent="9JURjrUvkeu7Aro2wpaL-5" vertex="1">
          <mxGeometry x="45" y="130" width="10" height="30" as="geometry" />
        </mxCell>
        <mxCell id="9JURjrUvkeu7Aro2wpaL-48" value="" style="html=1;points=[[0,0,0,0,5],[0,1,0,0,-5],[1,0,0,0,5],[1,1,0,0,-5]];perimeter=orthogonalPerimeter;outlineConnect=0;targetShapes=umlLifeline;portConstraint=eastwest;newEdgeStyle={&quot;curved&quot;:0,&quot;rounded&quot;:0};" parent="9JURjrUvkeu7Aro2wpaL-5" vertex="1">
          <mxGeometry x="45" y="180" width="10" height="30" as="geometry" />
        </mxCell>
        <mxCell id="9JURjrUvkeu7Aro2wpaL-49" style="edgeStyle=orthogonalEdgeStyle;rounded=0;orthogonalLoop=1;jettySize=auto;html=1;curved=0;exitX=1;exitY=0;exitDx=0;exitDy=5;exitPerimeter=0;entryX=1;entryY=0;entryDx=0;entryDy=5;entryPerimeter=0;" parent="9JURjrUvkeu7Aro2wpaL-5" source="9JURjrUvkeu7Aro2wpaL-42" target="9JURjrUvkeu7Aro2wpaL-47" edge="1">
          <mxGeometry relative="1" as="geometry">
            <Array as="points">
              <mxPoint x="100" y="85" />
              <mxPoint x="100" y="135" />
            </Array>
          </mxGeometry>
        </mxCell>
        <mxCell id="9JURjrUvkeu7Aro2wpaL-50" value="SpawnCoverGrounds()" style="edgeLabel;html=1;align=left;verticalAlign=middle;resizable=0;points=[];" parent="9JURjrUvkeu7Aro2wpaL-49" vertex="1" connectable="0">
          <mxGeometry x="0.0104" relative="1" as="geometry">
            <mxPoint as="offset" />
          </mxGeometry>
        </mxCell>
        <mxCell id="9JURjrUvkeu7Aro2wpaL-51" style="edgeStyle=orthogonalEdgeStyle;rounded=0;orthogonalLoop=1;jettySize=auto;html=1;curved=0;exitX=1;exitY=1;exitDx=0;exitDy=-5;exitPerimeter=0;entryX=1;entryY=0;entryDx=0;entryDy=5;entryPerimeter=0;" parent="9JURjrUvkeu7Aro2wpaL-5" source="9JURjrUvkeu7Aro2wpaL-42" target="9JURjrUvkeu7Aro2wpaL-48" edge="1">
          <mxGeometry relative="1" as="geometry">
            <Array as="points">
              <mxPoint x="80" y="105" />
              <mxPoint x="80" y="185" />
            </Array>
          </mxGeometry>
        </mxCell>
        <mxCell id="9JURjrUvkeu7Aro2wpaL-52" value="SpawnFields()" style="edgeLabel;html=1;align=left;verticalAlign=middle;resizable=0;points=[];" parent="9JURjrUvkeu7Aro2wpaL-51" vertex="1" connectable="0">
          <mxGeometry x="0.3064" relative="1" as="geometry">
            <mxPoint as="offset" />
          </mxGeometry>
        </mxCell>
        <mxCell id="9JURjrUvkeu7Aro2wpaL-6" value=":CharacterGenerator" style="shape=umlLifeline;perimeter=lifelinePerimeter;whiteSpace=wrap;html=1;container=1;dropTarget=0;collapsible=0;recursiveResize=0;outlineConnect=0;portConstraint=eastwest;newEdgeStyle={&quot;curved&quot;:0,&quot;rounded&quot;:0};" parent="WIyWlLk6GJQsqaUBKTNV-1" vertex="1">
          <mxGeometry x="900" y="820" width="120" height="620" as="geometry" />
        </mxCell>
        <mxCell id="9JURjrUvkeu7Aro2wpaL-65" value="" style="html=1;points=[[0,0,0,0,5],[0,1,0,0,-5],[1,0,0,0,5],[1,1,0,0,-5]];perimeter=orthogonalPerimeter;outlineConnect=0;targetShapes=umlLifeline;portConstraint=eastwest;newEdgeStyle={&quot;curved&quot;:0,&quot;rounded&quot;:0};" parent="9JURjrUvkeu7Aro2wpaL-6" vertex="1">
          <mxGeometry x="55" y="130" width="10" height="350" as="geometry" />
        </mxCell>
        <mxCell id="9JURjrUvkeu7Aro2wpaL-68" value="" style="html=1;points=[[0,0,0,0,5],[0,1,0,0,-5],[1,0,0,0,5],[1,1,0,0,-5]];perimeter=orthogonalPerimeter;outlineConnect=0;targetShapes=umlLifeline;portConstraint=eastwest;newEdgeStyle={&quot;curved&quot;:0,&quot;rounded&quot;:0};" parent="9JURjrUvkeu7Aro2wpaL-6" vertex="1">
          <mxGeometry x="55" y="510" width="10" height="30" as="geometry" />
        </mxCell>
        <mxCell id="9JURjrUvkeu7Aro2wpaL-69" value="" style="html=1;points=[[0,0,0,0,5],[0,1,0,0,-5],[1,0,0,0,5],[1,1,0,0,-5]];perimeter=orthogonalPerimeter;outlineConnect=0;targetShapes=umlLifeline;portConstraint=eastwest;newEdgeStyle={&quot;curved&quot;:0,&quot;rounded&quot;:0};" parent="9JURjrUvkeu7Aro2wpaL-6" vertex="1">
          <mxGeometry x="55" y="570" width="10" height="30" as="geometry" />
        </mxCell>
        <mxCell id="9JURjrUvkeu7Aro2wpaL-113" style="edgeStyle=orthogonalEdgeStyle;rounded=0;orthogonalLoop=1;jettySize=auto;html=1;curved=0;exitX=1;exitY=1;exitDx=0;exitDy=-5;exitPerimeter=0;entryX=1;entryY=0;entryDx=0;entryDy=5;entryPerimeter=0;" parent="9JURjrUvkeu7Aro2wpaL-6" source="9JURjrUvkeu7Aro2wpaL-65" target="9JURjrUvkeu7Aro2wpaL-68" edge="1">
          <mxGeometry relative="1" as="geometry">
            <Array as="points">
              <mxPoint x="140" y="475" />
              <mxPoint x="140" y="515" />
            </Array>
          </mxGeometry>
        </mxCell>
        <mxCell id="9JURjrUvkeu7Aro2wpaL-114" value="RandomizeIndexes()" style="edgeLabel;html=1;align=left;verticalAlign=middle;resizable=0;points=[];" parent="9JURjrUvkeu7Aro2wpaL-113" vertex="1" connectable="0">
          <mxGeometry x="-0.0418" y="-2" relative="1" as="geometry">
            <mxPoint as="offset" />
          </mxGeometry>
        </mxCell>
        <mxCell id="9JURjrUvkeu7Aro2wpaL-115" style="edgeStyle=orthogonalEdgeStyle;rounded=0;orthogonalLoop=1;jettySize=auto;html=1;curved=0;exitX=1;exitY=1;exitDx=0;exitDy=-5;exitPerimeter=0;entryX=1;entryY=0;entryDx=0;entryDy=5;entryPerimeter=0;" parent="9JURjrUvkeu7Aro2wpaL-6" source="9JURjrUvkeu7Aro2wpaL-65" target="9JURjrUvkeu7Aro2wpaL-69" edge="1">
          <mxGeometry relative="1" as="geometry">
            <Array as="points">
              <mxPoint x="120" y="475" />
              <mxPoint x="120" y="575" />
            </Array>
          </mxGeometry>
        </mxCell>
        <mxCell id="9JURjrUvkeu7Aro2wpaL-116" value="GetSpawnPosition()" style="edgeLabel;html=1;align=left;verticalAlign=middle;resizable=0;points=[];" parent="9JURjrUvkeu7Aro2wpaL-115" vertex="1" connectable="0">
          <mxGeometry x="0.1056" y="1" relative="1" as="geometry">
            <mxPoint as="offset" />
          </mxGeometry>
        </mxCell>
        <mxCell id="9JURjrUvkeu7Aro2wpaL-18" value=":MatchIntro" style="shape=umlLifeline;perimeter=lifelinePerimeter;whiteSpace=wrap;html=1;container=1;dropTarget=0;collapsible=0;recursiveResize=0;outlineConnect=0;portConstraint=eastwest;newEdgeStyle={&quot;curved&quot;:0,&quot;rounded&quot;:0};" parent="WIyWlLk6GJQsqaUBKTNV-1" vertex="1">
          <mxGeometry x="240" y="240" width="130" height="300" as="geometry" />
        </mxCell>
        <mxCell id="9JURjrUvkeu7Aro2wpaL-20" value="" style="html=1;points=[[0,0,0,0,5],[0,1,0,0,-5],[1,0,0,0,5],[1,1,0,0,-5]];perimeter=orthogonalPerimeter;outlineConnect=0;targetShapes=umlLifeline;portConstraint=eastwest;newEdgeStyle={&quot;curved&quot;:0,&quot;rounded&quot;:0};" parent="9JURjrUvkeu7Aro2wpaL-18" vertex="1">
          <mxGeometry x="60" y="190" width="10" height="80" as="geometry" />
        </mxCell>
        <mxCell id="9JURjrUvkeu7Aro2wpaL-21" style="edgeStyle=orthogonalEdgeStyle;rounded=0;orthogonalLoop=1;jettySize=auto;html=1;curved=0;exitX=1;exitY=1;exitDx=0;exitDy=-5;exitPerimeter=0;" parent="WIyWlLk6GJQsqaUBKTNV-1" source="9JURjrUvkeu7Aro2wpaL-15" target="9JURjrUvkeu7Aro2wpaL-20" edge="1">
          <mxGeometry relative="1" as="geometry" />
        </mxCell>
        <mxCell id="9JURjrUvkeu7Aro2wpaL-22" value="Play()" style="text;html=1;align=center;verticalAlign=middle;resizable=0;points=[];autosize=1;strokeColor=none;fillColor=none;" parent="WIyWlLk6GJQsqaUBKTNV-1" vertex="1">
          <mxGeometry x="175" y="438" width="50" height="30" as="geometry" />
        </mxCell>
        <mxCell id="9JURjrUvkeu7Aro2wpaL-24" style="edgeStyle=orthogonalEdgeStyle;rounded=0;orthogonalLoop=1;jettySize=auto;html=1;curved=0;exitX=0;exitY=1;exitDx=0;exitDy=-5;exitPerimeter=0;entryX=1;entryY=0;entryDx=0;entryDy=5;entryPerimeter=0;" parent="WIyWlLk6GJQsqaUBKTNV-1" source="9JURjrUvkeu7Aro2wpaL-20" target="9JURjrUvkeu7Aro2wpaL-23" edge="1">
          <mxGeometry relative="1" as="geometry" />
        </mxCell>
        <mxCell id="9JURjrUvkeu7Aro2wpaL-25" value="NextPhase()" style="text;html=1;align=center;verticalAlign=middle;resizable=0;points=[];autosize=1;strokeColor=none;fillColor=none;" parent="WIyWlLk6GJQsqaUBKTNV-1" vertex="1">
          <mxGeometry x="165" y="478" width="90" height="30" as="geometry" />
        </mxCell>
        <mxCell id="9JURjrUvkeu7Aro2wpaL-33" value=":FieldManager" style="shape=umlLifeline;perimeter=lifelinePerimeter;whiteSpace=wrap;html=1;container=1;dropTarget=0;collapsible=0;recursiveResize=0;outlineConnect=0;portConstraint=eastwest;newEdgeStyle={&quot;curved&quot;:0,&quot;rounded&quot;:0};" parent="WIyWlLk6GJQsqaUBKTNV-1" vertex="1">
          <mxGeometry x="300" y="600" width="100" height="300" as="geometry" />
        </mxCell>
        <mxCell id="9JURjrUvkeu7Aro2wpaL-34" value="" style="html=1;points=[[0,0,0,0,5],[0,1,0,0,-5],[1,0,0,0,5],[1,1,0,0,-5]];perimeter=orthogonalPerimeter;outlineConnect=0;targetShapes=umlLifeline;portConstraint=eastwest;newEdgeStyle={&quot;curved&quot;:0,&quot;rounded&quot;:0};" parent="9JURjrUvkeu7Aro2wpaL-33" vertex="1">
          <mxGeometry x="45" y="80" width="10" height="40" as="geometry" />
        </mxCell>
        <mxCell id="9JURjrUvkeu7Aro2wpaL-36" style="edgeStyle=orthogonalEdgeStyle;rounded=0;orthogonalLoop=1;jettySize=auto;html=1;curved=0;entryX=0;entryY=0;entryDx=0;entryDy=5;entryPerimeter=0;" parent="WIyWlLk6GJQsqaUBKTNV-1" source="9JURjrUvkeu7Aro2wpaL-30" target="9JURjrUvkeu7Aro2wpaL-34" edge="1">
          <mxGeometry relative="1" as="geometry">
            <Array as="points">
              <mxPoint x="230" y="685" />
              <mxPoint x="230" y="685" />
            </Array>
          </mxGeometry>
        </mxCell>
        <mxCell id="9JURjrUvkeu7Aro2wpaL-37" value="InitializeFields()" style="edgeLabel;html=1;align=center;verticalAlign=middle;resizable=0;points=[];" parent="9JURjrUvkeu7Aro2wpaL-36" vertex="1" connectable="0">
          <mxGeometry x="-0.0972" y="-2" relative="1" as="geometry">
            <mxPoint y="-17" as="offset" />
          </mxGeometry>
        </mxCell>
        <mxCell id="9JURjrUvkeu7Aro2wpaL-43" style="edgeStyle=orthogonalEdgeStyle;rounded=0;orthogonalLoop=1;jettySize=auto;html=1;curved=0;entryX=0;entryY=0;entryDx=0;entryDy=5;entryPerimeter=0;" parent="WIyWlLk6GJQsqaUBKTNV-1" source="9JURjrUvkeu7Aro2wpaL-30" target="9JURjrUvkeu7Aro2wpaL-42" edge="1">
          <mxGeometry relative="1" as="geometry">
            <Array as="points">
              <mxPoint x="280" y="745" />
              <mxPoint x="280" y="745" />
            </Array>
          </mxGeometry>
        </mxCell>
        <mxCell id="9JURjrUvkeu7Aro2wpaL-44" value="GenerateMapFrom()" style="edgeLabel;html=1;align=center;verticalAlign=middle;resizable=0;points=[];" parent="9JURjrUvkeu7Aro2wpaL-43" vertex="1" connectable="0">
          <mxGeometry x="0.0214" y="-1" relative="1" as="geometry">
            <mxPoint as="offset" />
          </mxGeometry>
        </mxCell>
        <mxCell id="9JURjrUvkeu7Aro2wpaL-56" value=":PlayerBase" style="shape=umlLifeline;perimeter=lifelinePerimeter;whiteSpace=wrap;html=1;container=1;dropTarget=0;collapsible=0;recursiveResize=0;outlineConnect=0;portConstraint=eastwest;newEdgeStyle={&quot;curved&quot;:0,&quot;rounded&quot;:0};" parent="WIyWlLk6GJQsqaUBKTNV-1" vertex="1">
          <mxGeometry x="590" y="820" width="100" height="290" as="geometry" />
        </mxCell>
        <mxCell id="9JURjrUvkeu7Aro2wpaL-57" value="" style="html=1;points=[[0,0,0,0,5],[0,1,0,0,-5],[1,0,0,0,5],[1,1,0,0,-5]];perimeter=orthogonalPerimeter;outlineConnect=0;targetShapes=umlLifeline;portConstraint=eastwest;newEdgeStyle={&quot;curved&quot;:0,&quot;rounded&quot;:0};" parent="9JURjrUvkeu7Aro2wpaL-56" vertex="1">
          <mxGeometry x="46" y="60" width="10" height="80" as="geometry" />
        </mxCell>
        <mxCell id="9JURjrUvkeu7Aro2wpaL-58" style="edgeStyle=orthogonalEdgeStyle;rounded=0;orthogonalLoop=1;jettySize=auto;html=1;curved=0;exitX=1;exitY=1;exitDx=0;exitDy=-5;exitPerimeter=0;entryX=0;entryY=0;entryDx=0;entryDy=5;entryPerimeter=0;" parent="WIyWlLk6GJQsqaUBKTNV-1" source="9JURjrUvkeu7Aro2wpaL-53" target="9JURjrUvkeu7Aro2wpaL-57" edge="1">
          <mxGeometry relative="1" as="geometry" />
        </mxCell>
        <mxCell id="9JURjrUvkeu7Aro2wpaL-59" value="Create()" style="edgeLabel;html=1;align=center;verticalAlign=middle;resizable=0;points=[];" parent="9JURjrUvkeu7Aro2wpaL-58" vertex="1" connectable="0">
          <mxGeometry x="0.0206" y="1" relative="1" as="geometry">
            <mxPoint x="-2" y="-14" as="offset" />
          </mxGeometry>
        </mxCell>
        <mxCell id="9JURjrUvkeu7Aro2wpaL-60" value=":Player" style="shape=umlLifeline;perimeter=lifelinePerimeter;whiteSpace=wrap;html=1;container=1;dropTarget=0;collapsible=0;recursiveResize=0;outlineConnect=0;portConstraint=eastwest;newEdgeStyle={&quot;curved&quot;:0,&quot;rounded&quot;:0};" parent="WIyWlLk6GJQsqaUBKTNV-1" vertex="1">
          <mxGeometry x="730" y="820" width="100" height="1050" as="geometry" />
        </mxCell>
        <mxCell id="9JURjrUvkeu7Aro2wpaL-61" value="" style="html=1;points=[[0,0,0,0,5],[0,1,0,0,-5],[1,0,0,0,5],[1,1,0,0,-5]];perimeter=orthogonalPerimeter;outlineConnect=0;targetShapes=umlLifeline;portConstraint=eastwest;newEdgeStyle={&quot;curved&quot;:0,&quot;rounded&quot;:0};" parent="9JURjrUvkeu7Aro2wpaL-60" vertex="1">
          <mxGeometry x="45" y="130" width="10" height="590" as="geometry" />
        </mxCell>
        <mxCell id="9JURjrUvkeu7Aro2wpaL-124" value="" style="html=1;points=[[0,0,0,0,5],[0,1,0,0,-5],[1,0,0,0,5],[1,1,0,0,-5]];perimeter=orthogonalPerimeter;outlineConnect=0;targetShapes=umlLifeline;portConstraint=eastwest;newEdgeStyle={&quot;curved&quot;:0,&quot;rounded&quot;:0};" parent="9JURjrUvkeu7Aro2wpaL-60" vertex="1">
          <mxGeometry x="45" y="740" width="10" height="40" as="geometry" />
        </mxCell>
        <mxCell id="9JURjrUvkeu7Aro2wpaL-125" style="edgeStyle=orthogonalEdgeStyle;rounded=0;orthogonalLoop=1;jettySize=auto;html=1;curved=0;exitX=1;exitY=1;exitDx=0;exitDy=-5;exitPerimeter=0;entryX=1;entryY=0;entryDx=0;entryDy=5;entryPerimeter=0;" parent="9JURjrUvkeu7Aro2wpaL-60" source="9JURjrUvkeu7Aro2wpaL-61" target="9JURjrUvkeu7Aro2wpaL-124" edge="1">
          <mxGeometry relative="1" as="geometry">
            <Array as="points">
              <mxPoint x="90" y="715" />
              <mxPoint x="90" y="745" />
            </Array>
          </mxGeometry>
        </mxCell>
        <mxCell id="9JURjrUvkeu7Aro2wpaL-126" value="SettingsForCharacter()" style="edgeLabel;html=1;align=left;verticalAlign=middle;resizable=0;points=[];" parent="9JURjrUvkeu7Aro2wpaL-125" vertex="1" connectable="0">
          <mxGeometry x="0.0128" relative="1" as="geometry">
            <mxPoint as="offset" />
          </mxGeometry>
        </mxCell>
        <mxCell id="9JURjrUvkeu7Aro2wpaL-127" value="" style="html=1;points=[[0,0,0,0,5],[0,1,0,0,-5],[1,0,0,0,5],[1,1,0,0,-5]];perimeter=orthogonalPerimeter;outlineConnect=0;targetShapes=umlLifeline;portConstraint=eastwest;newEdgeStyle={&quot;curved&quot;:0,&quot;rounded&quot;:0};" parent="9JURjrUvkeu7Aro2wpaL-60" vertex="1">
          <mxGeometry x="45" y="800" width="10" height="30" as="geometry" />
        </mxCell>
        <mxCell id="9JURjrUvkeu7Aro2wpaL-128" style="edgeStyle=orthogonalEdgeStyle;rounded=0;orthogonalLoop=1;jettySize=auto;html=1;curved=0;exitX=1;exitY=1;exitDx=0;exitDy=-5;exitPerimeter=0;entryX=1;entryY=0;entryDx=0;entryDy=5;entryPerimeter=0;" parent="9JURjrUvkeu7Aro2wpaL-60" source="9JURjrUvkeu7Aro2wpaL-124" target="9JURjrUvkeu7Aro2wpaL-127" edge="1">
          <mxGeometry relative="1" as="geometry">
            <Array as="points">
              <mxPoint x="120" y="775" />
              <mxPoint x="120" y="805" />
            </Array>
          </mxGeometry>
        </mxCell>
        <mxCell id="9JURjrUvkeu7Aro2wpaL-129" value="SetBattlePosition()" style="edgeLabel;html=1;align=left;verticalAlign=middle;resizable=0;points=[];" parent="9JURjrUvkeu7Aro2wpaL-128" vertex="1" connectable="0">
          <mxGeometry x="-0.0027" y="1" relative="1" as="geometry">
            <mxPoint as="offset" />
          </mxGeometry>
        </mxCell>
        <mxCell id="9JURjrUvkeu7Aro2wpaL-130" value="" style="html=1;points=[[0,0,0,0,5],[0,1,0,0,-5],[1,0,0,0,5],[1,1,0,0,-5]];perimeter=orthogonalPerimeter;outlineConnect=0;targetShapes=umlLifeline;portConstraint=eastwest;newEdgeStyle={&quot;curved&quot;:0,&quot;rounded&quot;:0};" parent="9JURjrUvkeu7Aro2wpaL-60" vertex="1">
          <mxGeometry x="45" y="854" width="10" height="26" as="geometry" />
        </mxCell>
        <mxCell id="9JURjrUvkeu7Aro2wpaL-131" style="edgeStyle=orthogonalEdgeStyle;rounded=0;orthogonalLoop=1;jettySize=auto;html=1;curved=0;exitX=1;exitY=1;exitDx=0;exitDy=-5;exitPerimeter=0;entryX=1;entryY=0;entryDx=0;entryDy=5;entryPerimeter=0;" parent="9JURjrUvkeu7Aro2wpaL-60" source="9JURjrUvkeu7Aro2wpaL-124" target="9JURjrUvkeu7Aro2wpaL-130" edge="1">
          <mxGeometry relative="1" as="geometry">
            <Array as="points">
              <mxPoint x="90" y="775" />
              <mxPoint x="90" y="859" />
            </Array>
          </mxGeometry>
        </mxCell>
        <mxCell id="9JURjrUvkeu7Aro2wpaL-132" value="SetDescriptionPanelForAction()" style="edgeLabel;html=1;align=left;verticalAlign=middle;resizable=0;points=[];" parent="9JURjrUvkeu7Aro2wpaL-131" vertex="1" connectable="0">
          <mxGeometry x="0.2324" y="1" relative="1" as="geometry">
            <mxPoint as="offset" />
          </mxGeometry>
        </mxCell>
        <mxCell id="9JURjrUvkeu7Aro2wpaL-63" style="edgeStyle=orthogonalEdgeStyle;rounded=0;orthogonalLoop=1;jettySize=auto;html=1;curved=0;exitX=1;exitY=1;exitDx=0;exitDy=-5;exitPerimeter=0;entryX=0;entryY=0;entryDx=0;entryDy=5;entryPerimeter=0;" parent="WIyWlLk6GJQsqaUBKTNV-1" source="9JURjrUvkeu7Aro2wpaL-57" target="9JURjrUvkeu7Aro2wpaL-61" edge="1">
          <mxGeometry relative="1" as="geometry" />
        </mxCell>
        <mxCell id="9JURjrUvkeu7Aro2wpaL-64" value="new Player()" style="edgeLabel;html=1;align=center;verticalAlign=middle;resizable=0;points=[];" parent="9JURjrUvkeu7Aro2wpaL-63" vertex="1" connectable="0">
          <mxGeometry x="-0.0258" relative="1" as="geometry">
            <mxPoint y="-15" as="offset" />
          </mxGeometry>
        </mxCell>
        <mxCell id="9JURjrUvkeu7Aro2wpaL-66" style="edgeStyle=orthogonalEdgeStyle;rounded=0;orthogonalLoop=1;jettySize=auto;html=1;curved=0;exitX=1;exitY=0;exitDx=0;exitDy=5;exitPerimeter=0;entryX=0;entryY=0;entryDx=0;entryDy=5;entryPerimeter=0;" parent="WIyWlLk6GJQsqaUBKTNV-1" source="9JURjrUvkeu7Aro2wpaL-61" target="9JURjrUvkeu7Aro2wpaL-65" edge="1">
          <mxGeometry relative="1" as="geometry" />
        </mxCell>
        <mxCell id="9JURjrUvkeu7Aro2wpaL-67" value="CreateCharactersFor()" style="edgeLabel;html=1;align=center;verticalAlign=middle;resizable=0;points=[];" parent="9JURjrUvkeu7Aro2wpaL-66" vertex="1" connectable="0">
          <mxGeometry x="-0.0941" relative="1" as="geometry">
            <mxPoint x="8" y="-15" as="offset" />
          </mxGeometry>
        </mxCell>
        <mxCell id="9JURjrUvkeu7Aro2wpaL-70" style="edgeStyle=orthogonalEdgeStyle;rounded=0;orthogonalLoop=1;jettySize=auto;html=1;curved=0;exitX=0;exitY=1;exitDx=0;exitDy=-5;exitPerimeter=0;" parent="WIyWlLk6GJQsqaUBKTNV-1" source="9JURjrUvkeu7Aro2wpaL-65" target="9JURjrUvkeu7Aro2wpaL-61" edge="1">
          <mxGeometry relative="1" as="geometry">
            <Array as="points">
              <mxPoint x="830" y="1295" />
              <mxPoint x="830" y="1295" />
            </Array>
          </mxGeometry>
        </mxCell>
        <mxCell id="9JURjrUvkeu7Aro2wpaL-71" value="return List&amp;lt;GameObject&amp;gt;" style="edgeLabel;html=1;align=center;verticalAlign=middle;resizable=0;points=[];" parent="9JURjrUvkeu7Aro2wpaL-70" vertex="1" connectable="0">
          <mxGeometry x="-0.0273" relative="1" as="geometry">
            <mxPoint y="-20" as="offset" />
          </mxGeometry>
        </mxCell>
        <mxCell id="9JURjrUvkeu7Aro2wpaL-72" value=":Character" style="shape=umlLifeline;whiteSpace=wrap;html=1;container=1;dropTarget=0;collapsible=0;recursiveResize=0;outlineConnect=0;portConstraint=eastwest;newEdgeStyle={&quot;curved&quot;:0,&quot;rounded&quot;:0};points=[[0,0,0,0,5],[0,1,0,0,-5],[1,0,0,0,5],[1,1,0,0,-5]];perimeter=rectanglePerimeter;targetShapes=umlLifeline;participant=label;" parent="WIyWlLk6GJQsqaUBKTNV-1" vertex="1">
          <mxGeometry x="1050" y="820" width="100" height="300" as="geometry" />
        </mxCell>
        <mxCell id="9JURjrUvkeu7Aro2wpaL-73" value="" style="html=1;points=[[0,0,0,0,5],[0,1,0,0,-5],[1,0,0,0,5],[1,1,0,0,-5]];perimeter=orthogonalPerimeter;outlineConnect=0;targetShapes=umlLifeline;portConstraint=eastwest;newEdgeStyle={&quot;curved&quot;:0,&quot;rounded&quot;:0};" parent="9JURjrUvkeu7Aro2wpaL-72" vertex="1">
          <mxGeometry x="45" y="130" width="10" height="30" as="geometry" />
        </mxCell>
        <mxCell id="9JURjrUvkeu7Aro2wpaL-74" style="edgeStyle=orthogonalEdgeStyle;rounded=0;orthogonalLoop=1;jettySize=auto;html=1;curved=0;exitX=1;exitY=0;exitDx=0;exitDy=5;exitPerimeter=0;entryX=0;entryY=0;entryDx=0;entryDy=5;entryPerimeter=0;" parent="WIyWlLk6GJQsqaUBKTNV-1" source="9JURjrUvkeu7Aro2wpaL-65" target="9JURjrUvkeu7Aro2wpaL-73" edge="1">
          <mxGeometry relative="1" as="geometry" />
        </mxCell>
        <mxCell id="9JURjrUvkeu7Aro2wpaL-75" value="SetData()" style="edgeLabel;html=1;align=center;verticalAlign=middle;resizable=0;points=[];" parent="9JURjrUvkeu7Aro2wpaL-74" vertex="1" connectable="0">
          <mxGeometry x="0.0085" y="1" relative="1" as="geometry">
            <mxPoint y="-14" as="offset" />
          </mxGeometry>
        </mxCell>
        <mxCell id="9JURjrUvkeu7Aro2wpaL-76" value=":CharacterGetWeapon" style="shape=umlLifeline;perimeter=lifelinePerimeter;whiteSpace=wrap;html=1;container=1;dropTarget=0;collapsible=0;recursiveResize=0;outlineConnect=0;portConstraint=eastwest;newEdgeStyle={&quot;curved&quot;:0,&quot;rounded&quot;:0};" parent="WIyWlLk6GJQsqaUBKTNV-1" vertex="1">
          <mxGeometry x="1176" y="820" width="129" height="310" as="geometry" />
        </mxCell>
        <mxCell id="9JURjrUvkeu7Aro2wpaL-78" value="" style="html=1;points=[[0,0,0,0,5],[0,1,0,0,-5],[1,0,0,0,5],[1,1,0,0,-5]];perimeter=orthogonalPerimeter;outlineConnect=0;targetShapes=umlLifeline;portConstraint=eastwest;newEdgeStyle={&quot;curved&quot;:0,&quot;rounded&quot;:0};" parent="9JURjrUvkeu7Aro2wpaL-76" vertex="1">
          <mxGeometry x="60" y="180" width="10" height="30" as="geometry" />
        </mxCell>
        <mxCell id="9JURjrUvkeu7Aro2wpaL-83" value="" style="html=1;points=[[0,0,0,0,5],[0,1,0,0,-5],[1,0,0,0,5],[1,1,0,0,-5]];perimeter=orthogonalPerimeter;outlineConnect=0;targetShapes=umlLifeline;portConstraint=eastwest;newEdgeStyle={&quot;curved&quot;:0,&quot;rounded&quot;:0};" parent="9JURjrUvkeu7Aro2wpaL-76" vertex="1">
          <mxGeometry x="60" y="230" width="10" height="30" as="geometry" />
        </mxCell>
        <mxCell id="9JURjrUvkeu7Aro2wpaL-79" style="edgeStyle=orthogonalEdgeStyle;rounded=0;orthogonalLoop=1;jettySize=auto;html=1;curved=0;exitX=1;exitY=0;exitDx=0;exitDy=5;exitPerimeter=0;entryX=0;entryY=0;entryDx=0;entryDy=5;entryPerimeter=0;" parent="WIyWlLk6GJQsqaUBKTNV-1" source="9JURjrUvkeu7Aro2wpaL-65" target="9JURjrUvkeu7Aro2wpaL-78" edge="1">
          <mxGeometry relative="1" as="geometry">
            <Array as="points">
              <mxPoint x="965" y="1005" />
            </Array>
          </mxGeometry>
        </mxCell>
        <mxCell id="9JURjrUvkeu7Aro2wpaL-80" value="SetWeaponToLeftHand()" style="edgeLabel;html=1;align=center;verticalAlign=middle;resizable=0;points=[];" parent="9JURjrUvkeu7Aro2wpaL-79" vertex="1" connectable="0">
          <mxGeometry x="0.1697" y="1" relative="1" as="geometry">
            <mxPoint x="-1" as="offset" />
          </mxGeometry>
        </mxCell>
        <mxCell id="9JURjrUvkeu7Aro2wpaL-84" style="edgeStyle=orthogonalEdgeStyle;rounded=0;orthogonalLoop=1;jettySize=auto;html=1;curved=0;entryX=0;entryY=0;entryDx=0;entryDy=5;entryPerimeter=0;" parent="WIyWlLk6GJQsqaUBKTNV-1" source="9JURjrUvkeu7Aro2wpaL-65" target="9JURjrUvkeu7Aro2wpaL-83" edge="1">
          <mxGeometry relative="1" as="geometry">
            <mxPoint x="970" y="960" as="sourcePoint" />
            <Array as="points">
              <mxPoint x="1030" y="1055" />
              <mxPoint x="1030" y="1055" />
            </Array>
          </mxGeometry>
        </mxCell>
        <mxCell id="9JURjrUvkeu7Aro2wpaL-85" value="SetWeaponToRightHand()" style="edgeLabel;html=1;align=center;verticalAlign=middle;resizable=0;points=[];" parent="9JURjrUvkeu7Aro2wpaL-84" vertex="1" connectable="0">
          <mxGeometry x="0.2819" y="-2" relative="1" as="geometry">
            <mxPoint as="offset" />
          </mxGeometry>
        </mxCell>
        <mxCell id="9JURjrUvkeu7Aro2wpaL-86" value=":CharacterColor" style="shape=umlLifeline;perimeter=lifelinePerimeter;whiteSpace=wrap;html=1;container=1;dropTarget=0;collapsible=0;recursiveResize=0;outlineConnect=0;portConstraint=eastwest;newEdgeStyle={&quot;curved&quot;:0,&quot;rounded&quot;:0};" parent="WIyWlLk6GJQsqaUBKTNV-1" vertex="1">
          <mxGeometry x="1330" y="820" width="100" height="310" as="geometry" />
        </mxCell>
        <mxCell id="9JURjrUvkeu7Aro2wpaL-87" value="" style="html=1;points=[[0,0,0,0,5],[0,1,0,0,-5],[1,0,0,0,5],[1,1,0,0,-5]];perimeter=orthogonalPerimeter;outlineConnect=0;targetShapes=umlLifeline;portConstraint=eastwest;newEdgeStyle={&quot;curved&quot;:0,&quot;rounded&quot;:0};" parent="9JURjrUvkeu7Aro2wpaL-86" vertex="1">
          <mxGeometry x="45" y="269" width="10" height="31" as="geometry" />
        </mxCell>
        <mxCell id="9JURjrUvkeu7Aro2wpaL-88" style="edgeStyle=orthogonalEdgeStyle;rounded=0;orthogonalLoop=1;jettySize=auto;html=1;curved=0;entryX=0;entryY=0;entryDx=0;entryDy=5;entryPerimeter=0;" parent="WIyWlLk6GJQsqaUBKTNV-1" target="9JURjrUvkeu7Aro2wpaL-87" edge="1">
          <mxGeometry relative="1" as="geometry">
            <mxPoint x="965" y="1094" as="sourcePoint" />
            <Array as="points">
              <mxPoint x="965" y="1094" />
            </Array>
          </mxGeometry>
        </mxCell>
        <mxCell id="9JURjrUvkeu7Aro2wpaL-89" value="SetColor()" style="edgeLabel;html=1;align=center;verticalAlign=middle;resizable=0;points=[];" parent="9JURjrUvkeu7Aro2wpaL-88" vertex="1" connectable="0">
          <mxGeometry x="0.0095" y="-3" relative="1" as="geometry">
            <mxPoint as="offset" />
          </mxGeometry>
        </mxCell>
        <mxCell id="9JURjrUvkeu7Aro2wpaL-90" value=":PanelManager" style="shape=umlLifeline;perimeter=lifelinePerimeter;whiteSpace=wrap;html=1;container=1;dropTarget=0;collapsible=0;recursiveResize=0;outlineConnect=0;portConstraint=eastwest;newEdgeStyle={&quot;curved&quot;:0,&quot;rounded&quot;:0};" parent="WIyWlLk6GJQsqaUBKTNV-1" vertex="1">
          <mxGeometry x="1191" y="1150" width="100" height="490" as="geometry" />
        </mxCell>
        <mxCell id="9JURjrUvkeu7Aro2wpaL-91" value="" style="html=1;points=[[0,0,0,0,5],[0,1,0,0,-5],[1,0,0,0,5],[1,1,0,0,-5]];perimeter=orthogonalPerimeter;outlineConnect=0;targetShapes=umlLifeline;portConstraint=eastwest;newEdgeStyle={&quot;curved&quot;:0,&quot;rounded&quot;:0};" parent="9JURjrUvkeu7Aro2wpaL-90" vertex="1">
          <mxGeometry x="46" y="70" width="10" height="80" as="geometry" />
        </mxCell>
        <mxCell id="9JURjrUvkeu7Aro2wpaL-118" value="" style="html=1;points=[[0,0,0,0,5],[0,1,0,0,-5],[1,0,0,0,5],[1,1,0,0,-5]];perimeter=orthogonalPerimeter;outlineConnect=0;targetShapes=umlLifeline;portConstraint=eastwest;newEdgeStyle={&quot;curved&quot;:0,&quot;rounded&quot;:0};" parent="9JURjrUvkeu7Aro2wpaL-90" vertex="1">
          <mxGeometry x="45" y="330" width="10" height="30" as="geometry" />
        </mxCell>
        <mxCell id="9JURjrUvkeu7Aro2wpaL-92" style="edgeStyle=orthogonalEdgeStyle;rounded=0;orthogonalLoop=1;jettySize=auto;html=1;curved=0;entryX=0;entryY=0;entryDx=0;entryDy=5;entryPerimeter=0;" parent="WIyWlLk6GJQsqaUBKTNV-1" source="9JURjrUvkeu7Aro2wpaL-65" target="9JURjrUvkeu7Aro2wpaL-91" edge="1">
          <mxGeometry relative="1" as="geometry">
            <Array as="points">
              <mxPoint x="1040" y="1225" />
              <mxPoint x="1040" y="1225" />
            </Array>
          </mxGeometry>
        </mxCell>
        <mxCell id="9JURjrUvkeu7Aro2wpaL-93" value="GetPanel()&lt;div&gt;&lt;br&gt;&lt;/div&gt;" style="edgeLabel;html=1;align=center;verticalAlign=middle;resizable=0;points=[];" parent="9JURjrUvkeu7Aro2wpaL-92" vertex="1" connectable="0">
          <mxGeometry x="0.0044" y="-2" relative="1" as="geometry">
            <mxPoint y="1" as="offset" />
          </mxGeometry>
        </mxCell>
        <mxCell id="9JURjrUvkeu7Aro2wpaL-94" value=":CharacterPanel" style="shape=umlLifeline;perimeter=lifelinePerimeter;whiteSpace=wrap;html=1;container=1;dropTarget=0;collapsible=0;recursiveResize=0;outlineConnect=0;portConstraint=eastwest;newEdgeStyle={&quot;curved&quot;:0,&quot;rounded&quot;:0};" parent="WIyWlLk6GJQsqaUBKTNV-1" vertex="1">
          <mxGeometry x="1330" y="1150" width="100" height="940" as="geometry" />
        </mxCell>
        <mxCell id="9JURjrUvkeu7Aro2wpaL-95" value="" style="html=1;points=[[0,0,0,0,5],[0,1,0,0,-5],[1,0,0,0,5],[1,1,0,0,-5]];perimeter=orthogonalPerimeter;outlineConnect=0;targetShapes=umlLifeline;portConstraint=eastwest;newEdgeStyle={&quot;curved&quot;:0,&quot;rounded&quot;:0};" parent="9JURjrUvkeu7Aro2wpaL-94" vertex="1">
          <mxGeometry x="45" y="70" width="10" height="30" as="geometry" />
        </mxCell>
        <mxCell id="9JURjrUvkeu7Aro2wpaL-100" value="" style="html=1;points=[[0,0,0,0,5],[0,1,0,0,-5],[1,0,0,0,5],[1,1,0,0,-5]];perimeter=orthogonalPerimeter;outlineConnect=0;targetShapes=umlLifeline;portConstraint=eastwest;newEdgeStyle={&quot;curved&quot;:0,&quot;rounded&quot;:0};" parent="9JURjrUvkeu7Aro2wpaL-94" vertex="1">
          <mxGeometry x="45" y="140" width="10" height="30" as="geometry" />
        </mxCell>
        <mxCell id="9JURjrUvkeu7Aro2wpaL-133" value="" style="html=1;points=[[0,0,0,0,5],[0,1,0,0,-5],[1,0,0,0,5],[1,1,0,0,-5]];perimeter=orthogonalPerimeter;outlineConnect=0;targetShapes=umlLifeline;portConstraint=eastwest;newEdgeStyle={&quot;curved&quot;:0,&quot;rounded&quot;:0};" parent="9JURjrUvkeu7Aro2wpaL-94" vertex="1">
          <mxGeometry x="45" y="540" width="10" height="80" as="geometry" />
        </mxCell>
        <mxCell id="9JURjrUvkeu7Aro2wpaL-98" style="edgeStyle=orthogonalEdgeStyle;rounded=0;orthogonalLoop=1;jettySize=auto;html=1;curved=0;exitX=1;exitY=0;exitDx=0;exitDy=5;exitPerimeter=0;entryX=0;entryY=0;entryDx=0;entryDy=5;entryPerimeter=0;" parent="WIyWlLk6GJQsqaUBKTNV-1" source="9JURjrUvkeu7Aro2wpaL-91" target="9JURjrUvkeu7Aro2wpaL-95" edge="1">
          <mxGeometry relative="1" as="geometry">
            <mxPoint x="1309.9999999999998" y="1270" as="targetPoint" />
          </mxGeometry>
        </mxCell>
        <mxCell id="9JURjrUvkeu7Aro2wpaL-99" value="SetCharacter()" style="edgeLabel;html=1;align=center;verticalAlign=middle;resizable=0;points=[];" parent="9JURjrUvkeu7Aro2wpaL-98" vertex="1" connectable="0">
          <mxGeometry x="-0.025" y="1" relative="1" as="geometry">
            <mxPoint as="offset" />
          </mxGeometry>
        </mxCell>
        <mxCell id="9JURjrUvkeu7Aro2wpaL-101" style="edgeStyle=orthogonalEdgeStyle;rounded=0;orthogonalLoop=1;jettySize=auto;html=1;curved=0;exitX=1;exitY=1;exitDx=0;exitDy=-5;exitPerimeter=0;entryX=0;entryY=0;entryDx=0;entryDy=5;entryPerimeter=0;" parent="WIyWlLk6GJQsqaUBKTNV-1" source="9JURjrUvkeu7Aro2wpaL-91" target="9JURjrUvkeu7Aro2wpaL-100" edge="1">
          <mxGeometry relative="1" as="geometry" />
        </mxCell>
        <mxCell id="9JURjrUvkeu7Aro2wpaL-102" value="SetAction()" style="edgeLabel;html=1;align=center;verticalAlign=middle;resizable=0;points=[];" parent="9JURjrUvkeu7Aro2wpaL-101" vertex="1" connectable="0">
          <mxGeometry y="1" relative="1" as="geometry">
            <mxPoint as="offset" />
          </mxGeometry>
        </mxCell>
        <mxCell id="9JURjrUvkeu7Aro2wpaL-103" value=":ActionPanel" style="shape=umlLifeline;perimeter=lifelinePerimeter;whiteSpace=wrap;html=1;container=1;dropTarget=0;collapsible=0;recursiveResize=0;outlineConnect=0;portConstraint=eastwest;newEdgeStyle={&quot;curved&quot;:0,&quot;rounded&quot;:0};" parent="WIyWlLk6GJQsqaUBKTNV-1" vertex="1">
          <mxGeometry x="1460" y="1150" width="100" height="950" as="geometry" />
        </mxCell>
        <mxCell id="9JURjrUvkeu7Aro2wpaL-104" value="" style="html=1;points=[[0,0,0,0,5],[0,1,0,0,-5],[1,0,0,0,5],[1,1,0,0,-5]];perimeter=orthogonalPerimeter;outlineConnect=0;targetShapes=umlLifeline;portConstraint=eastwest;newEdgeStyle={&quot;curved&quot;:0,&quot;rounded&quot;:0};" parent="9JURjrUvkeu7Aro2wpaL-103" vertex="1">
          <mxGeometry x="45" y="140" width="10" height="80" as="geometry" />
        </mxCell>
        <mxCell id="9JURjrUvkeu7Aro2wpaL-105" style="edgeStyle=orthogonalEdgeStyle;rounded=0;orthogonalLoop=1;jettySize=auto;html=1;curved=0;exitX=1;exitY=0;exitDx=0;exitDy=5;exitPerimeter=0;entryX=0;entryY=0;entryDx=0;entryDy=5;entryPerimeter=0;" parent="WIyWlLk6GJQsqaUBKTNV-1" source="9JURjrUvkeu7Aro2wpaL-100" target="9JURjrUvkeu7Aro2wpaL-104" edge="1">
          <mxGeometry relative="1" as="geometry" />
        </mxCell>
        <mxCell id="9JURjrUvkeu7Aro2wpaL-106" value="SetData()" style="edgeLabel;html=1;align=center;verticalAlign=middle;resizable=0;points=[];" parent="9JURjrUvkeu7Aro2wpaL-105" vertex="1" connectable="0">
          <mxGeometry x="0.022" y="-1" relative="1" as="geometry">
            <mxPoint as="offset" />
          </mxGeometry>
        </mxCell>
        <mxCell id="9JURjrUvkeu7Aro2wpaL-107" value=":GetActionBase" style="shape=umlLifeline;perimeter=lifelinePerimeter;whiteSpace=wrap;html=1;container=1;dropTarget=0;collapsible=0;recursiveResize=0;outlineConnect=0;portConstraint=eastwest;newEdgeStyle={&quot;curved&quot;:0,&quot;rounded&quot;:0};" parent="WIyWlLk6GJQsqaUBKTNV-1" vertex="1">
          <mxGeometry x="1590" y="1150" width="100" height="300" as="geometry" />
        </mxCell>
        <mxCell id="9JURjrUvkeu7Aro2wpaL-108" value="" style="html=1;points=[[0,0,0,0,5],[0,1,0,0,-5],[1,0,0,0,5],[1,1,0,0,-5]];perimeter=orthogonalPerimeter;outlineConnect=0;targetShapes=umlLifeline;portConstraint=eastwest;newEdgeStyle={&quot;curved&quot;:0,&quot;rounded&quot;:0};" parent="9JURjrUvkeu7Aro2wpaL-107" vertex="1">
          <mxGeometry x="45" y="140" width="10" height="80" as="geometry" />
        </mxCell>
        <mxCell id="9JURjrUvkeu7Aro2wpaL-109" style="edgeStyle=orthogonalEdgeStyle;rounded=0;orthogonalLoop=1;jettySize=auto;html=1;curved=0;exitX=1;exitY=0;exitDx=0;exitDy=5;exitPerimeter=0;entryX=0;entryY=0;entryDx=0;entryDy=5;entryPerimeter=0;" parent="WIyWlLk6GJQsqaUBKTNV-1" source="9JURjrUvkeu7Aro2wpaL-104" target="9JURjrUvkeu7Aro2wpaL-108" edge="1">
          <mxGeometry relative="1" as="geometry" />
        </mxCell>
        <mxCell id="9JURjrUvkeu7Aro2wpaL-110" value="Create()" style="edgeLabel;html=1;align=center;verticalAlign=middle;resizable=0;points=[];" parent="9JURjrUvkeu7Aro2wpaL-109" vertex="1" connectable="0">
          <mxGeometry x="0.0528" y="-1" relative="1" as="geometry">
            <mxPoint as="offset" />
          </mxGeometry>
        </mxCell>
        <mxCell id="9JURjrUvkeu7Aro2wpaL-111" style="edgeStyle=orthogonalEdgeStyle;rounded=0;orthogonalLoop=1;jettySize=auto;html=1;curved=0;exitX=0;exitY=1;exitDx=0;exitDy=-5;exitPerimeter=0;entryX=1;entryY=1;entryDx=0;entryDy=-5;entryPerimeter=0;" parent="WIyWlLk6GJQsqaUBKTNV-1" source="9JURjrUvkeu7Aro2wpaL-108" target="9JURjrUvkeu7Aro2wpaL-104" edge="1">
          <mxGeometry relative="1" as="geometry" />
        </mxCell>
        <mxCell id="9JURjrUvkeu7Aro2wpaL-112" value="return ActionBase()" style="edgeLabel;html=1;align=center;verticalAlign=middle;resizable=0;points=[];" parent="9JURjrUvkeu7Aro2wpaL-111" vertex="1" connectable="0">
          <mxGeometry x="0.0472" y="-1" relative="1" as="geometry">
            <mxPoint x="8" y="-14" as="offset" />
          </mxGeometry>
        </mxCell>
        <mxCell id="9JURjrUvkeu7Aro2wpaL-119" style="edgeStyle=orthogonalEdgeStyle;rounded=0;orthogonalLoop=1;jettySize=auto;html=1;curved=0;entryX=0;entryY=0;entryDx=0;entryDy=5;entryPerimeter=0;" parent="WIyWlLk6GJQsqaUBKTNV-1" target="9JURjrUvkeu7Aro2wpaL-118" edge="1">
          <mxGeometry relative="1" as="geometry">
            <mxPoint x="785" y="1485" as="sourcePoint" />
            <Array as="points">
              <mxPoint x="785" y="1485" />
            </Array>
          </mxGeometry>
        </mxCell>
        <mxCell id="9JURjrUvkeu7Aro2wpaL-120" value="GetRollPanel()" style="edgeLabel;html=1;align=center;verticalAlign=middle;resizable=0;points=[];" parent="9JURjrUvkeu7Aro2wpaL-119" vertex="1" connectable="0">
          <mxGeometry x="-0.0316" y="2" relative="1" as="geometry">
            <mxPoint as="offset" />
          </mxGeometry>
        </mxCell>
        <mxCell id="9JURjrUvkeu7Aro2wpaL-122" style="edgeStyle=orthogonalEdgeStyle;rounded=0;orthogonalLoop=1;jettySize=auto;html=1;curved=0;exitX=0;exitY=1;exitDx=0;exitDy=-5;exitPerimeter=0;" parent="WIyWlLk6GJQsqaUBKTNV-1" source="9JURjrUvkeu7Aro2wpaL-118" target="9JURjrUvkeu7Aro2wpaL-61" edge="1">
          <mxGeometry relative="1" as="geometry">
            <mxPoint x="790" y="1505" as="targetPoint" />
            <Array as="points">
              <mxPoint x="910" y="1505" />
              <mxPoint x="910" y="1505" />
            </Array>
          </mxGeometry>
        </mxCell>
        <mxCell id="9JURjrUvkeu7Aro2wpaL-123" value="return RollPanel" style="edgeLabel;html=1;align=center;verticalAlign=middle;resizable=0;points=[];" parent="9JURjrUvkeu7Aro2wpaL-122" vertex="1" connectable="0">
          <mxGeometry x="0.0403" y="-1" relative="1" as="geometry">
            <mxPoint as="offset" />
          </mxGeometry>
        </mxCell>
        <mxCell id="9JURjrUvkeu7Aro2wpaL-134" style="edgeStyle=orthogonalEdgeStyle;rounded=0;orthogonalLoop=1;jettySize=auto;html=1;curved=0;exitX=1;exitY=1;exitDx=0;exitDy=-5;exitPerimeter=0;entryX=0;entryY=0;entryDx=0;entryDy=5;entryPerimeter=0;" parent="WIyWlLk6GJQsqaUBKTNV-1" source="9JURjrUvkeu7Aro2wpaL-130" target="9JURjrUvkeu7Aro2wpaL-133" edge="1">
          <mxGeometry relative="1" as="geometry" />
        </mxCell>
        <mxCell id="9JURjrUvkeu7Aro2wpaL-135" value="Se" style="edgeLabel;html=1;align=center;verticalAlign=middle;resizable=0;points=[];" parent="9JURjrUvkeu7Aro2wpaL-134" vertex="1" connectable="0">
          <mxGeometry x="0.0207" y="2" relative="1" as="geometry">
            <mxPoint as="offset" />
          </mxGeometry>
        </mxCell>
        <mxCell id="9JURjrUvkeu7Aro2wpaL-136" value="&lt;span style=&quot;text-align: left;&quot;&gt;SetDescriptionPanelForAction()&lt;/span&gt;" style="edgeLabel;html=1;align=center;verticalAlign=middle;resizable=0;points=[];" parent="9JURjrUvkeu7Aro2wpaL-134" vertex="1" connectable="0">
          <mxGeometry x="0.0247" relative="1" as="geometry">
            <mxPoint as="offset" />
          </mxGeometry>
        </mxCell>
        <mxCell id="9JURjrUvkeu7Aro2wpaL-138" style="edgeStyle=orthogonalEdgeStyle;rounded=0;orthogonalLoop=1;jettySize=auto;html=1;curved=0;exitX=1;exitY=0;exitDx=0;exitDy=5;exitPerimeter=0;entryX=0;entryY=0;entryDx=0;entryDy=5;entryPerimeter=0;" parent="WIyWlLk6GJQsqaUBKTNV-1" source="9JURjrUvkeu7Aro2wpaL-133" target="9JURjrUvkeu7Aro2wpaL-137" edge="1">
          <mxGeometry relative="1" as="geometry" />
        </mxCell>
        <mxCell id="9JURjrUvkeu7Aro2wpaL-139" value="SetPosition()" style="edgeLabel;html=1;align=center;verticalAlign=middle;resizable=0;points=[];" parent="9JURjrUvkeu7Aro2wpaL-138" vertex="1" connectable="0">
          <mxGeometry x="0.0329" y="1" relative="1" as="geometry">
            <mxPoint as="offset" />
          </mxGeometry>
        </mxCell>
        <mxCell id="9JURjrUvkeu7Aro2wpaL-141" style="edgeStyle=orthogonalEdgeStyle;rounded=0;orthogonalLoop=1;jettySize=auto;html=1;curved=0;exitX=1;exitY=1;exitDx=0;exitDy=-5;exitPerimeter=0;entryX=0;entryY=0;entryDx=0;entryDy=5;entryPerimeter=0;" parent="WIyWlLk6GJQsqaUBKTNV-1" source="9JURjrUvkeu7Aro2wpaL-133" target="9JURjrUvkeu7Aro2wpaL-140" edge="1">
          <mxGeometry relative="1" as="geometry" />
        </mxCell>
        <mxCell id="9JURjrUvkeu7Aro2wpaL-142" value="SetText()" style="edgeLabel;html=1;align=center;verticalAlign=middle;resizable=0;points=[];" parent="9JURjrUvkeu7Aro2wpaL-141" vertex="1" connectable="0">
          <mxGeometry x="0.0523" relative="1" as="geometry">
            <mxPoint as="offset" />
          </mxGeometry>
        </mxCell>
        <mxCell id="9JURjrUvkeu7Aro2wpaL-143" value=":ActionPopUp" style="shape=umlLifeline;perimeter=lifelinePerimeter;whiteSpace=wrap;html=1;container=1;dropTarget=0;collapsible=0;recursiveResize=0;outlineConnect=0;portConstraint=eastwest;newEdgeStyle={&quot;curved&quot;:0,&quot;rounded&quot;:0};" parent="WIyWlLk6GJQsqaUBKTNV-1" vertex="1">
          <mxGeometry x="1590" y="1620" width="100" height="300" as="geometry" />
        </mxCell>
        <mxCell id="9JURjrUvkeu7Aro2wpaL-137" value="" style="html=1;points=[[0,0,0,0,5],[0,1,0,0,-5],[1,0,0,0,5],[1,1,0,0,-5]];perimeter=orthogonalPerimeter;outlineConnect=0;targetShapes=umlLifeline;portConstraint=eastwest;newEdgeStyle={&quot;curved&quot;:0,&quot;rounded&quot;:0};" parent="9JURjrUvkeu7Aro2wpaL-143" vertex="1">
          <mxGeometry x="45" y="70" width="10" height="30" as="geometry" />
        </mxCell>
        <mxCell id="9JURjrUvkeu7Aro2wpaL-140" value="" style="html=1;points=[[0,0,0,0,5],[0,1,0,0,-5],[1,0,0,0,5],[1,1,0,0,-5]];perimeter=orthogonalPerimeter;outlineConnect=0;targetShapes=umlLifeline;portConstraint=eastwest;newEdgeStyle={&quot;curved&quot;:0,&quot;rounded&quot;:0};" parent="9JURjrUvkeu7Aro2wpaL-143" vertex="1">
          <mxGeometry x="45" y="140" width="10" height="30" as="geometry" />
        </mxCell>
      </root>
    </mxGraphModel>
  </diagram>
</mxfile>
